<svg xmlns="http://www.w3.org/2000/svg" version="1.1" xmlns:xlink="http://www.w3.org/1999/xlink" viewBox="0 0 200 200" width="200" height="200"><rect width="200" height="200" fill="url('#gradient')"></rect><defs><linearGradient id="gradient" gradientTransform="rotate(45 0.5 0.5)"><stop offset="0%" stop-color="#e2e1ba"></stop><stop offset="100%" stop-color="#fff8ea"></stop></linearGradient></defs><g><g fill="#acc6ca" transform="matrix(1.2942002527734868,0,0,1.2942002527734868,8.609815298665563,109.58577935572772)" stroke="#5aa3a6" stroke-width="0.2"><path d="M10.03-8.30L10.03-5.66L4.50-5.66L4.50 0L1.07 0L1.07-14.22L10.59-14.22L10.59-11.57L4.50-11.57L4.50-8.30L10.03-8.30ZM15.33-10.57L15.33 0L12.03 0L12.03-10.57L15.33-10.57ZM11.84-13.29L11.84-13.29Q11.84-13.99 12.34-14.44Q12.85-14.89 13.66-14.89Q14.47-14.89 14.98-14.44Q15.49-13.99 15.49-13.29Q15.49-12.59 14.98-12.14Q14.47-11.69 13.66-11.69Q12.85-11.69 12.34-12.14Q11.84-12.59 11.84-13.29ZM17.29-10.57L20.38-10.57L20.49-9.33Q21.58-10.76 23.51-10.76L23.51-10.76Q25.16-10.76 25.97-9.78Q26.79-8.79 26.82-6.81L26.82-6.81L26.82 0L23.52 0L23.52-6.67Q23.52-7.47 23.19-7.85Q22.87-8.22 22.02-8.22L22.02-8.22Q21.05-8.22 20.59-7.46L20.59-7.46L20.59 0L17.29 0L17.29-10.57ZM37.88 0L34.59 0Q34.41-0.32 34.28-0.95L34.28-0.95Q33.37 0.20 31.74 0.20L31.74 0.20Q30.24 0.20 29.20-0.71Q28.15-1.61 28.15-2.98L28.15-2.98Q28.15-4.70 29.42-5.58Q30.69-6.46 33.12-6.46L33.12-6.46L34.13-6.46L34.13-7.01Q34.13-8.47 32.87-8.47L32.87-8.47Q31.70-8.47 31.70-7.31L31.70-7.31L28.41-7.31Q28.41-8.85 29.71-9.80Q31.02-10.76 33.04-10.76Q35.06-10.76 36.23-9.78Q37.40-8.79 37.43-7.07L37.43-7.07L37.43-2.39Q37.45-0.94 37.88-0.17L37.88-0.17L37.88 0ZM32.53-2.15L32.53-2.15Q33.14-2.15 33.55-2.41Q33.96-2.68 34.13-3.01L34.13-3.01L34.13-4.70L33.17-4.70Q31.46-4.70 31.46-3.15L31.46-3.15Q31.46-2.71 31.76-2.43Q32.06-2.15 32.53-2.15ZM39.19-10.57L42.28-10.57L42.38-9.33Q43.48-10.76 45.40-10.76L45.40-10.76Q47.05-10.76 47.87-9.78Q48.68-8.79 48.71-6.81L48.71-6.81L48.71 0L45.41 0L45.41-6.67Q45.41-7.47 45.09-7.85Q44.77-8.22 43.92-8.22L43.92-8.22Q42.95-8.22 42.48-7.46L42.48-7.46L42.48 0L39.19 0L39.19-10.57ZM55-2.34L55-2.34Q55.69-2.34 56.07-2.72Q56.46-3.10 56.45-3.77L56.45-3.77L59.53-3.77Q59.53-2.03 58.29-0.92Q57.04 0.20 55.08 0.20L55.08 0.20Q52.77 0.20 51.45-1.25Q50.12-2.70 50.12-5.25L50.12-5.25L50.12-5.39Q50.12-6.99 50.71-8.22Q51.30-9.44 52.41-10.10Q53.53-10.76 55.05-10.76L55.05-10.76Q57.11-10.76 58.32-9.62Q59.53-8.48 59.53-6.52L59.53-6.52L56.45-6.52Q56.45-7.34 56.04-7.78Q55.64-8.22 54.97-8.22L54.97-8.22Q53.69-8.22 53.48-6.59L53.48-6.59Q53.41-6.07 53.41-5.17L53.41-5.17Q53.41-3.57 53.79-2.96Q54.17-2.34 55-2.34ZM66.04 0.20L66.04 0.20Q63.60 0.20 62.10-1.25Q60.60-2.71 60.60-5.03L60.60-5.03L60.60-5.30Q60.60-6.92 61.20-8.16Q61.80-9.40 62.95-10.08Q64.10-10.76 65.68-10.76L65.68-10.76Q67.91-10.76 69.20-9.38Q70.49-8.00 70.49-5.53L70.49-5.53L70.49-4.25L63.95-4.25Q64.12-3.36 64.72-2.85Q65.31-2.34 66.26-2.34L66.26-2.34Q67.82-2.34 68.70-3.44L68.70-3.44L70.21-1.66Q69.59-0.81 68.46-0.31Q67.33 0.20 66.04 0.20ZM65.66-8.22L65.66-8.22Q64.22-8.22 63.95-6.31L63.95-6.31L67.27-6.31L67.27-6.56Q67.29-7.35 66.87-7.79Q66.45-8.22 65.66-8.22ZM83.13-14.22L83.13-11.57L78.86-11.57L78.86 0L75.43 0L75.43-11.57L71.24-11.57L71.24-14.22L83.13-14.22ZM90.23-10.64L90.18-7.59L89.09-7.67Q87.54-7.67 87.10-6.69L87.10-6.69L87.10 0L83.81 0L83.81-10.57L86.89-10.57L87.00-9.21Q87.83-10.76 89.32-10.76L89.32-10.76Q89.84-10.76 90.23-10.64L90.23-10.64ZM100.31 0L97.02 0Q96.85-0.32 96.71-0.95L96.71-0.95Q95.80 0.20 94.17 0.20L94.17 0.20Q92.68 0.20 91.63-0.71Q90.59-1.61 90.59-2.98L90.59-2.98Q90.59-4.70 91.86-5.58Q93.13-6.46 95.55-6.46L95.55-6.46L96.56-6.46L96.56-7.01Q96.56-8.47 95.30-8.47L95.30-8.47Q94.13-8.47 94.13-7.31L94.13-7.31L90.84-7.31Q90.84-8.85 92.14-9.80Q93.45-10.76 95.47-10.76Q97.49-10.76 98.66-9.78Q99.83-8.79 99.86-7.07L99.86-7.07L99.86-2.39Q99.88-0.94 100.31-0.17L100.31-0.17L100.31 0ZM94.96-2.15L94.96-2.15Q95.58-2.15 95.98-2.41Q96.39-2.68 96.56-3.01L96.56-3.01L96.56-4.70L95.61-4.70Q93.89-4.70 93.89-3.15L93.89-3.15Q93.89-2.71 94.19-2.43Q94.49-2.15 94.96-2.15ZM106.15-2.34L106.15-2.34Q106.85-2.34 107.23-2.72Q107.61-3.10 107.60-3.77L107.60-3.77L110.68-3.77Q110.68-2.03 109.44-0.92Q108.19 0.20 106.23 0.20L106.23 0.20Q103.93 0.20 102.60-1.25Q101.27-2.70 101.27-5.25L101.27-5.25L101.27-5.39Q101.27-6.99 101.86-8.22Q102.45-9.44 103.56-10.10Q104.68-10.76 106.20-10.76L106.20-10.76Q108.26-10.76 109.47-9.62Q110.68-8.48 110.68-6.52L110.68-6.52L107.60-6.52Q107.60-7.34 107.20-7.78Q106.80-8.22 106.12-8.22L106.12-8.22Q104.84-8.22 104.63-6.59L104.63-6.59Q104.56-6.07 104.56-5.17L104.56-5.17Q104.56-3.57 104.94-2.96Q105.32-2.34 106.15-2.34ZM118.62 0L116.32-3.94L115.39-3.01L115.39 0L112.10 0L112.10-15.01L115.39-15.01L115.39-7.04L115.72-7.48L118.20-10.57L122.15-10.57L118.45-6.22L122.39 0L118.62 0ZM127.93 0.20L127.93 0.20Q125.50 0.20 123.99-1.25Q122.49-2.71 122.49-5.03L122.49-5.03L122.49-5.30Q122.49-6.92 123.09-8.16Q123.69-9.40 124.84-10.08Q126.00-10.76 127.58-10.76L127.58-10.76Q129.80-10.76 131.09-9.38Q132.38-8.00 132.38-5.53L132.38-5.53L132.38-4.25L125.84-4.25Q126.02-3.36 126.61-2.85Q127.21-2.34 128.15-2.34L128.15-2.34Q129.72-2.34 130.60-3.44L130.60-3.44L132.10-1.66Q131.48-0.81 130.36-0.31Q129.23 0.20 127.93 0.20ZM127.56-8.22L127.56-8.22Q126.11-8.22 125.84-6.31L125.84-6.31L129.16-6.31L129.16-6.56Q129.18-7.35 128.76-7.79Q128.34-8.22 127.56-8.22ZM140.16-10.64L140.10-7.59L139.01-7.67Q137.46-7.67 137.02-6.69L137.02-6.69L137.02 0L133.73 0L133.73-10.57L136.82-10.57L136.92-9.21Q137.75-10.76 139.24-10.76L139.24-10.76Q139.77-10.76 140.16-10.64L140.16-10.64Z"></path></g></g></svg>